<svg height="512" viewBox="0 0 96 96" width="512" xmlns="http://www.w3.org/2000/svg"><g id="Layer_4"><g><path d="m25.382 71.73c5.649 0 10.228-4.579 10.228-10.228s-4.579-10.228-10.228-10.228-10.228 4.579-10.228 10.228 4.579 10.228 10.228 10.228zm0-13.645c1.884 0 3.417 1.533 3.417 3.417s-1.533 3.417-3.417 3.417-3.417-1.533-3.417-3.417 1.533-3.417 3.417-3.417z"/><path d="m7.293 91.919c1.881 0 3.406-1.723 3.406-3.604 0-3.831 3-8.315 7.016-8.315h14.931c4.05 0 7.075 4.532 7.075 8.406 0 1.881 1.525 3.505 3.406 3.505s3.406-1.768 3.406-3.649c0-8.142-6.36-15.262-13.887-15.262h-14.931c-7.495 0-13.827 7.129-13.827 15.221 0 1.88 1.524 3.698 3.405 3.698z"/><path d="m60.734 61.502c0 5.649 4.579 10.228 10.228 10.228s10.228-4.579 10.228-10.228-4.579-10.228-10.228-10.228c-5.648 0-10.228 4.579-10.228 10.228zm10.228-3.417c1.884 0 3.417 1.533 3.417 3.417s-1.533 3.417-3.417 3.417-3.417-1.533-3.417-3.417c.001-1.884 1.533-3.417 3.417-3.417z"/><path d="m63.295 73c-7.495 0-13.827 7.129-13.827 15.221 0 1.881 1.525 3.552 3.406 3.552s3.406-1.65 3.406-3.531c0-3.831 3-8.242 7.016-8.242h14.931c4.05 0 7.075 4.532 7.075 8.406 0 1.881 1.525 3.505 3.406 3.505s3.406-1.768 3.406-3.649c0-8.142-6.36-15.262-13.887-15.262z"/><path d="m47.828 49.746c12.61 0 22.868-10.259 22.868-22.868s-10.258-22.868-22.868-22.868-22.867 10.259-22.867 22.868c0 12.61 10.258 22.868 22.867 22.868zm0-39.544c9.195 0 16.676 7.481 16.676 16.676 0 9.196-7.481 16.676-16.676 16.676s-16.676-7.481-16.676-16.676c.001-9.195 7.481-16.676 16.676-16.676z"/><path d="m39.169 30h4.831v5.195c0 1.881 1.619 3.406 3.5 3.406s3.5-1.525 3.5-3.406v-5.195h5.506c1.881 0 3.406-1.619 3.406-3.5s-1.525-3.5-3.406-3.5h-5.506v-4.524c0-1.881-1.619-3.406-3.5-3.406s-3.5 1.526-3.5 3.406v4.524h-4.831c-1.881 0-3.406 1.619-3.406 3.5s1.525 3.5 3.406 3.5z"/></g></g></svg>