<svg height="512" viewBox="0 0 64 64" width="512" xmlns="http://www.w3.org/2000/svg"><g id="m"><path d="m58 6h-52c-2.757 0-5 2.243-5 5v32c0 2.757 2.243 5 5 5h20.613l-1.333 4h-8.28c-1.654 0-3 1.346-3 3v2c0 .553.447 1 1 1h34c.553 0 1-.447 1-1v-2c0-1.309-.847-2.412-2.018-2.821.005-.06.018-.117.018-.179v-4h10c2.757 0 5-2.243 5-5v-32c0-2.757-2.243-5-5-5zm-52 2h52c1.654 0 3 1.346 3 3v28h-11.098c.06-.312.098-.627.098-.944v-6.056c0-1.654-1.346-3-3-3-.395 0-.77.081-1.116.22-.346-1.275-1.501-2.22-2.884-2.22-.537 0-1.034.153-1.471.401-.532-.839-1.464-1.401-2.529-1.401-.352 0-.686.072-1 .184v-2.184h5c1.654 0 3-1.346 3-3v-4c0-1.654-1.346-3-3-3h-22c-1.654 0-3 1.346-3 3v4c0 1.654 1.346 3 3 3h11v12.586l-2.672-2.672c-.581-.581-1.385-.914-2.207-.914-1.721 0-3.121 1.4-3.121 3.121 0 .822.333 1.626.914 2.207l.672.672h-22.586v-28c0-1.654 1.346-3 3-3zm39.104 36.553c-.069.139-.105.292-.105.448v.999h-10.381l-.724-1.447c-.048-.096-.111-.184-.188-.26l-7.379-7.379c-.209-.209-.328-.498-.328-.793 0-.618.503-1.121 1.121-1.121.295 0 .584.119.793.328l4.379 4.379c.287.287.717.374 1.09.217.374-.154.617-.52.617-.924v-16c0-.551.448-1 1-1s1 .449 1 1v14h2v-8c0-.551.448-1 1-1s1 .449 1 1v7h2v-6c0-.551.448-1 1-1s1 .449 1 1v7h2v-5c0-.551.448-1 1-1s1 .449 1 1v6.056c0 .464-.109.927-.317 1.342zm-7.289-22.553c-.414-1.161-1.514-2-2.816-2s-2.402.839-2.816 2h-11.184c-.552 0-1-.449-1-1v-4c0-.551.448-1 1-1h22c.552 0 1 .449 1 1v4c0 .551-.448 1-1 1zm-34.815 21v-2h24.586l4.592 4.593.204.407h-26.382c-1.654 0-3-1.346-3-3zm25.72 5h3.28v4h-4.613zm19.28 8h-32v-1c0-.552.448-1 1-1h30c.552 0 1 .448 1 1zm-1.998-4h-12.002v-4h12zm11.998-6h-11.001v-.764l2.119-4.236h11.882v2c0 1.654-1.346 3-3 3z"/></g></svg>