<svg id="&#x421;&#x43B;&#x43E;&#x439;_1" viewBox="0 0 128 128" xmlns="http://www.w3.org/2000/svg"><path d="m54 56h-52a2 2 0 0 1 -2-2v-52a2 2 0 0 1 2-2h52a2 2 0 0 1 2 2v52a2 2 0 0 1 -2 2zm-50-4h48v-48h-48z"/><path d="m25.5 41a2 2 0 0 1 -1.41-.58l-15.5-15.52a2 2 0 0 1 2.82-2.82l14.09 14.09 19.09-19.09a2 2 0 1 1 2.82 2.83l-20.49 20.5a2 2 0 0 1 -1.42.59z"/><path d="m126 24h-58a2 2 0 0 1 0-4h58a2 2 0 0 1 0 4z"/><path d="m54 128h-52a2 2 0 0 1 -2-2v-52a2 2 0 0 1 2-2h52a2 2 0 0 1 2 2v52a2 2 0 0 1 -2 2zm-50-4h48v-48h-48z"/><path d="m25.5 113a2 2 0 0 1 -1.41-.58l-15.5-15.52a2 2 0 0 1 2.82-2.82l14.09 14.09 19.09-19.09a2 2 0 0 1 2.82 2.83l-20.49 20.5a2 2 0 0 1 -1.42.59z"/><path d="m107 36h-39a2 2 0 0 1 0-4h39a2 2 0 0 1 0 4z"/><path d="m126 96h-58a2 2 0 0 1 0-4h58a2 2 0 0 1 0 4z"/><path d="m116 108h-48a2 2 0 0 1 0-4h48a2 2 0 0 1 0 4z"/></svg>