<svg id="Layer_1" height="512" viewBox="0 0 64 64" width="512" xmlns="http://www.w3.org/2000/svg" data-name="Layer 1"><path d="m43 21h-19a3 3 0 0 0 -3 3v18a3 3 0 0 0 3 3h16a1 1 0 0 0 .707-.293l5-5a1 1 0 0 0 .293-.707v-15a3 3 0 0 0 -3-3zm-2 20.586v-1.586h1.586zm3-3.586h-4a1 1 0 0 0 -1 1v4h-15a1 1 0 0 1 -1-1v-15h21zm0-13h-21v-1a1 1 0 0 1 1-1h19a1 1 0 0 1 1 1z"/><path d="m30 30h2v2h-2z"/><path d="m35 30h2v2h-2z"/><path d="m40 30h2v2h-2z"/><path d="m30 34h2v2h-2z"/><path d="m25 34h2v2h-2z"/><path d="m35 34h2v2h-2z"/><path d="m30 38h2v2h-2z"/><path d="m25 38h2v2h-2z"/><path d="m35 38h2v2h-2z"/><path d="m40 34h2v2h-2z"/><path d="m54 1a9 9 0 1 0 9 9 9.01 9.01 0 0 0 -9-9zm0 16a7 7 0 1 1 7-7 7.009 7.009 0 0 1 -7 7z"/><path d="m10 63a9 9 0 1 0 -9-9 9.01 9.01 0 0 0 9 9zm0-16a7 7 0 1 1 -7 7 7.009 7.009 0 0 1 7-7z"/><path d="m52.232 11.414-1.414-1.414-1.418 1.414 2.121 2.121a1 1 0 0 0 1.414 0l5.665-5.656-1.418-1.414z"/><path d="m10.5 56h-1a.5.5 0 0 1 -.5-.5h-2a2.5 2.5 0 0 0 2 2.449v1.051h2v-1.051a2.5 2.5 0 0 0 -.5-4.949h-1a.5.5 0 0 1 0-1h1a.5.5 0 0 1 .5.5h2a2.5 2.5 0 0 0 -2-2.449v-1.051h-2v1.051a2.5 2.5 0 0 0 .5 4.949h1a.5.5 0 0 1 0 1z"/><path d="m32 58c-.655 0-1.326-.036-2-.089v-1.911a1 1 0 0 0 -1.515-.857l-5 3a1 1 0 0 0 0 1.714l5 3a1 1 0 0 0 1.515-.857v-2.083c.674.049 1.344.083 2 .083a28.01 28.01 0 0 0 26.4-37.335l-1.884.67a26.011 26.011 0 0 1 -24.516 34.665zm-4 2.233-2.057-1.233 2.057-1.233z"/><path d="m32 6c.65 0 1.317.034 2 .084v1.916a1 1 0 0 0 1.515.857l5-3a1 1 0 0 0 0-1.714l-5-3a1 1 0 0 0 -1.515.857v2.078c-.679-.046-1.346-.078-2-.078a28.01 28.01 0 0 0 -26.4 37.335l1.884-.67a26.011 26.011 0 0 1 24.516-34.665zm4-2.233 2.057 1.233-2.057 1.233z"/></svg>